<svg width="24" height="24" viewBox="0 0 24 24" fill="none" xmlns="http://www.w3.org/2000/svg">
<path d="M12 17V11" stroke="#00573A" stroke-width="1.5" stroke-linecap="round" stroke-linejoin="round"/>
<path d="M12 6.88477C11.93 6.88477 11.875 6.93977 11.875 7.00977C11.875 7.07977 11.93 7.13477 12 7.13477C12.07 7.13477 12.125 7.07977 12.125 7.00977C12.125 6.93977 12.07 6.88477 12 6.88477" stroke="#00573A" stroke-width="1.5" stroke-linecap="round" stroke-linejoin="round"/>
<path d="M12 2.8999C11.93 2.8999 11.875 2.9549 11.875 3.0249C11.875 3.0949 11.93 3.1499 12 3.1499C12.07 3.1499 12.125 3.0949 12.125 3.0249C12.125 2.9549 12.07 2.8999 12 2.8999" stroke="#00573A" stroke-width="1.5" stroke-linecap="round" stroke-linejoin="round"/>
<path d="M20 21H4" stroke="#00573A" stroke-width="1.5" stroke-linecap="round" stroke-linejoin="round"/>
<path d="M16 13L11.999 17.001L7.99902 13" stroke="#00573A" stroke-width="1.5" stroke-linecap="round" stroke-linejoin="round"/>
</svg>
