<svg width="24" height="24" viewBox="0 0 24 24" fill="none" xmlns="http://www.w3.org/2000/svg">
<path d="M14 5H18C19.105 5 20 5.895 20 7V20C20 21.105 19.105 22 18 22H6C4.895 22 4 21.105 4 20V7C4 5.895 4.895 5 6 5H10" stroke="#999999" stroke-width="1.5" stroke-linecap="round" stroke-linejoin="round"/>
<path d="M13.591 10.659C14.4697 11.5377 14.4697 12.9623 13.591 13.841C12.7123 14.7197 11.2877 14.7197 10.409 13.841C9.53033 12.9623 9.53033 11.5377 10.409 10.659C11.2877 9.78031 12.7123 9.78031 13.591 10.659" stroke="#999999" stroke-width="1.5" stroke-linecap="round" stroke-linejoin="round"/>
<path d="M15.5948 19C15.4198 18.561 15.1498 18.167 14.8028 17.846V17.846C14.2158 17.302 13.4458 17 12.6458 17H11.3538C10.5538 17 9.78379 17.302 9.19679 17.846V17.846C8.84979 18.167 8.57979 18.561 8.40479 19" stroke="#999999" stroke-width="1.5" stroke-linecap="round" stroke-linejoin="round"/>
<path fill-rule="evenodd" clip-rule="evenodd" d="M13 7H11C10.448 7 10 6.552 10 6V3C10 2.448 10.448 2 11 2H13C13.552 2 14 2.448 14 3V6C14 6.552 13.552 7 13 7Z" stroke="#999999" stroke-width="1.5" stroke-linecap="round" stroke-linejoin="round"/>
</svg>
