<svg width="24" height="24" viewBox="0 0 24 24" fill="none" xmlns="http://www.w3.org/2000/svg">
<path d="M11.999 6.37499C11.847 6.37499 11.724 6.49799 11.726 6.64999C11.726 6.80199 11.849 6.92499 12.001 6.92499C12.153 6.92499 12.276 6.80199 12.276 6.64999C12.274 6.49799 12.152 6.37499 11.999 6.37499" stroke="#999999" stroke-width="1.5" stroke-linecap="round" stroke-linejoin="round"/>
<path d="M6.92391 11.999C6.92391 11.847 6.80091 11.724 6.64991 11.726C6.49791 11.726 6.37491 11.849 6.37491 12.001C6.37491 12.153 6.49791 12.276 6.64991 12.276C6.80191 12.276 6.92391 12.152 6.92391 11.999" stroke="#999999" stroke-width="1.5" stroke-linecap="round" stroke-linejoin="round"/>
<path d="M15.9772 8.02201C15.8702 7.91501 15.6962 7.91501 15.5902 8.02301C15.4832 8.13001 15.4832 8.30401 15.5902 8.41101C15.6972 8.51801 15.8712 8.51801 15.9782 8.41101C16.0852 8.30301 16.0852 8.13001 15.9772 8.02201" stroke="#999999" stroke-width="1.5" stroke-linecap="round" stroke-linejoin="round"/>
<path d="M8.40986 15.589C8.30286 15.482 8.12886 15.482 8.02286 15.59C7.91586 15.697 7.91586 15.871 8.02286 15.978C8.12986 16.085 8.30386 16.085 8.41086 15.978C8.51786 15.871 8.51786 15.697 8.40986 15.589" stroke="#999999" stroke-width="1.5" stroke-linecap="round" stroke-linejoin="round"/>
<path d="M8.41087 8.41C8.51787 8.303 8.51787 8.129 8.40987 8.023C8.30287 7.916 8.12887 7.916 8.02187 8.023C7.91487 8.13 7.91487 8.304 8.02187 8.411C8.12887 8.518 8.30287 8.518 8.41087 8.41" stroke="#999999" stroke-width="1.5" stroke-linecap="round" stroke-linejoin="round"/>
<path fill-rule="evenodd" clip-rule="evenodd" d="M12 21C6.94503 21 2.86303 16.832 3.00403 11.745C3.13403 7.049 7.04903 3.134 11.745 3.004C16.832 2.863 21 6.945 21 12V13C21 14.105 20.105 15 19 15H16.937C15.608 15 14.649 16.272 15.014 17.549L15.271 18.45C15.637 19.728 14.677 21 13.349 21H12Z" stroke="#999999" stroke-width="1.5" stroke-linecap="round" stroke-linejoin="round"/>
</svg>
