<svg width="25" height="24" viewBox="0 0 25 24" fill="none" xmlns="http://www.w3.org/2000/svg">
<path d="M7.5 8V4C7.5 3.448 7.948 3 8.5 3H16.5C17.052 3 17.5 3.448 17.5 4V8" stroke="#00573A" stroke-width="1.5" stroke-linecap="round" stroke-linejoin="round"/>
<path d="M7.5 17H5.5C4.395 17 3.5 16.105 3.5 15V10C3.5 8.895 4.395 8 5.5 8H19.5C20.605 8 21.5 8.895 21.5 10V15C21.5 16.105 20.605 17 19.5 17H17.5" stroke="#00573A" stroke-width="1.5" stroke-linecap="round" stroke-linejoin="round"/>
<path fill-rule="evenodd" clip-rule="evenodd" d="M7.5 13.8H17.5V20C17.5 20.552 17.052 21 16.5 21H8.5C7.948 21 7.5 20.552 7.5 20V13.8Z" stroke="#00573A" stroke-width="1.5" stroke-linecap="round" stroke-linejoin="round"/>
<path d="M7.5 11H8.5" stroke="#00573A" stroke-width="1.5" stroke-linecap="round" stroke-linejoin="round"/>
</svg>
