<svg width="25" height="24" viewBox="0 0 25 24" fill="none" xmlns="http://www.w3.org/2000/svg">
<path d="M12.5 17V11" stroke="white" stroke-width="1.5" stroke-linecap="round" stroke-linejoin="round"/>
<path d="M12.5 6.88501C12.43 6.88501 12.375 6.94001 12.375 7.01001C12.375 7.08001 12.43 7.13501 12.5 7.13501C12.57 7.13501 12.625 7.08001 12.625 7.01001C12.625 6.94001 12.57 6.88501 12.5 6.88501" stroke="white" stroke-width="1.5" stroke-linecap="round" stroke-linejoin="round"/>
<path d="M12.5 2.89999C12.43 2.89999 12.375 2.95499 12.375 3.02499C12.375 3.09499 12.43 3.14999 12.5 3.14999C12.57 3.14999 12.625 3.09499 12.625 3.02499C12.625 2.95499 12.57 2.89999 12.5 2.89999" stroke="white" stroke-width="1.5" stroke-linecap="round" stroke-linejoin="round"/>
<path d="M20.5 21H4.5" stroke="white" stroke-width="1.5" stroke-linecap="round" stroke-linejoin="round"/>
<path d="M16.5 13L12.499 17.001L8.49902 13" stroke="white" stroke-width="1.5" stroke-linecap="round" stroke-linejoin="round"/>
</svg>
