<svg width="24" height="24" viewBox="0 0 24 24" fill="none" xmlns="http://www.w3.org/2000/svg">
<path d="M13.48 3V4.94" stroke="white" stroke-width="1.5" stroke-linecap="round" stroke-linejoin="round"/>
<path d="M17.9799 4.32999L16.6099 5.70999" stroke="white" stroke-width="1.5" stroke-linecap="round" stroke-linejoin="round"/>
<path d="M8.97998 4.32999L10.36 5.70999" stroke="white" stroke-width="1.5" stroke-linecap="round" stroke-linejoin="round"/>
<path fill-rule="evenodd" clip-rule="evenodd" d="M8.835 9.33001H10.603C10.865 9.33001 11.116 9.43401 11.302 9.61901L12.699 11.016C12.884 11.201 13.136 11.305 13.398 11.305H14.354C14.728 11.305 15.07 11.094 15.238 10.759L15.68 9.87501C15.847 9.54001 16.189 9.32901 16.564 9.32901H21L19.904 13.281L14.67 15.164C14.67 18.387 12.058 20.999 8.835 20.999C5.612 20.999 3 18.388 3 15.165C3 11.942 5.612 9.33001 8.835 9.33001Z" stroke="white" stroke-width="1.5" stroke-linecap="round" stroke-linejoin="round"/>
<path d="M10.1666 13.8335C10.902 14.5689 10.902 15.7611 10.1666 16.4965C9.43127 17.2318 8.23902 17.2318 7.50367 16.4965C6.76831 15.7611 6.76831 14.5689 7.50367 13.8335C8.23902 13.0981 9.43128 13.0981 10.1666 13.8335" stroke="white" stroke-width="1.5" stroke-linecap="round" stroke-linejoin="round"/>
</svg>
