<svg width="24" height="24" viewBox="0 0 24 24" fill="none" xmlns="http://www.w3.org/2000/svg">
<path d="M6.5 9V20C6.5 20.552 6.948 21 7.5 21H16.5C17.052 21 17.5 20.552 17.5 20V9" stroke="#1E87FA" stroke-width="1.5" stroke-linecap="round" stroke-linejoin="round"/>
<path d="M6.5 13H3.5C2.948 13 2.5 12.552 2.5 12V7.41601C2.5 6.24801 3.178 5.18601 4.238 4.69401L7.702 3.08801C8.463 2.73501 9.364 2.89501 9.958 3.48801L11.293 4.82301C11.684 5.21401 12.317 5.21401 12.707 4.82301L14.042 3.48801C14.635 2.89501 15.536 2.73501 16.298 3.08801L19.762 4.69401C20.822 5.18501 21.5 6.24701 21.5 7.41601V12C21.5 12.552 21.052 13 20.5 13H17.5" stroke="#1E87FA" stroke-width="1.5" stroke-linecap="round" stroke-linejoin="round"/>
</svg>
