<svg width="24" height="24" viewBox="0 0 24 24" fill="none" xmlns="http://www.w3.org/2000/svg">
<path d="M2 19C2 16.8 3.8 15 6 15H10C12.2 15 14 16.8 14 19" stroke="#00573A" stroke-width="1.5" stroke-linecap="round" stroke-linejoin="round"/>
<path d="M10.4999 6C11.8999 7.4 11.8999 9.6 10.4999 10.9C9.09993 12.2 6.89993 12.3 5.59993 10.9C4.29993 9.5 4.19993 7.4 5.49993 6C6.79993 4.6 9.09993 4.7 10.4999 6" stroke="#00573A" stroke-width="1.5" stroke-linecap="round" stroke-linejoin="round"/>
<path d="M16 14H19C20.7 14 22 15.3 22 17" stroke="#00573A" stroke-width="1.5" stroke-linecap="round" stroke-linejoin="round"/>
<path d="M19.2999 6.69999C20.2999 7.69999 20.2999 9.29999 19.2999 10.2C18.2999 11.1 16.6999 11.2 15.7999 10.2C14.8999 9.19999 14.7999 7.59999 15.7999 6.69999C16.6999 5.79999 18.2999 5.79999 19.2999 6.69999" stroke="#00573A" stroke-width="1.5" stroke-linecap="round" stroke-linejoin="round"/>
</svg>
